<svg width="394" height="157" data-bx-workspace="master" xmlns="http://www.w3.org/2000/svg" viewBox="0 0 394 157" preserveAspectRatio="xMidYMin">
<defs>
<linearGradient id="paint0_linear_111_193" x1="1.01785" y1="9.82667" x2="6.21849" y2="10.0152" gradientUnits="userSpaceOnUse" gradientTransform="matrix(1, 0, 0, 1, 194.203949, -0.00001)">
<stop stop-color="#15BFFD">
</stop>
<stop offset="1" stop-color="#9C37FD">
</stop>
</linearGradient>
<linearGradient id="paint0_linear_111_194" x1="22.5445" y1="15.2325" x2="98.7112" y2="198.312" gradientUnits="userSpaceOnUse" gradientTransform="matrix(1, 0, 0, 1, 194.267761, -0.542971)">
<stop stop-color="#15BFFD">
</stop>
<stop offset="1" stop-color="#9C37FD">
</stop>
</linearGradient>
<linearGradient id="gradient-1" x1="22.5445" y1="15.2325" x2="98.7112" y2="198.312" gradientUnits="userSpaceOnUse" gradientTransform="matrix(1, 0, 0, -1, -0.737831, 156.588455)">
<stop stop-color="#15BFFD">
</stop>
<stop offset="1" stop-color="#9C37FD">
</stop>
</linearGradient>
</defs>
<path fill-rule="evenodd" clip-rule="evenodd" d="M 195 1.004 L 195 0 L 197 0 L 197 1.004 L 195 1.004 Z M 195 5.019 L 195 3.011 L 197 3.011 L 197 5.019 L 195 5.019 Z M 195 9.034 L 195 7.027 L 197 7.027 L 197 9.034 L 195 9.034 Z M 195 13.049 L 195 11.042 L 197 11.042 L 197 13.049 L 195 13.049 Z M 195 17.064 L 195 15.057 L 197 15.057 L 197 17.064 L 195 17.064 Z M 195 21.079 L 195 19.072 L 197 19.072 L 197 21.079 L 195 21.079 Z M 195 25.094 L 195 23.087 L 197 23.087 L 197 25.094 L 195 25.094 Z M 195 29.11 L 195 27.102 L 197 27.102 L 197 29.11 L 195 29.11 Z M 195 33.125 L 195 31.117 L 197 31.117 L 197 33.125 L 195 33.125 Z M 195 37.14 L 195 35.132 L 197 35.132 L 197 37.14 L 195 37.14 Z M 195 41.155 L 195 39.147 L 197 39.147 L 197 41.155 L 195 41.155 Z M 195 45.17 L 195 43.162 L 197 43.162 L 197 45.17 L 195 45.17 Z M 195 49.185 L 195 47.177 L 197 47.177 L 197 49.185 L 195 49.185 Z M 195 53.2 L 195 51.193 L 197 51.193 L 197 53.2 L 195 53.2 Z M 195 57.215 L 195 55.208 L 197 55.208 L 197 57.215 L 195 57.215 Z M 195 61.23 L 195 59.223 L 197 59.223 L 197 61.23 L 195 61.23 Z M 195 65.245 L 195 63.238 L 197 63.238 L 197 65.245 L 195 65.245 Z M 195 69.261 L 195 67.253 L 197 67.253 L 197 69.261 L 195 69.261 Z M 195 73.276 L 195 71.268 L 197 71.268 L 197 73.276 L 195 73.276 Z M 195 77.291 L 195 75.283 L 197 75.283 L 197 77.291 L 195 77.291 Z M 195 81.306 L 195 79.298 L 197 79.298 L 197 81.306 L 195 81.306 Z M 195 85.321 L 195 83.313 L 197 83.313 L 197 85.321 L 195 85.321 Z M 195 89.336 L 195 87.328 L 197 87.328 L 197 89.336 L 195 89.336 Z M 195 93.351 L 195 91.344 L 197 91.344 L 197 93.351 L 195 93.351 Z M 195 97.366 L 195 95.359 L 197 95.359 L 197 97.366 L 195 97.366 Z M 195 101.381 L 195 99.374 L 197 99.374 L 197 101.381 L 195 101.381 Z M 195 104.392 L 195 103.389 L 197 103.389 L 197 104.392 L 195 104.392 Z" fill="url(#paint0_linear_111_193)" fill-opacity="0.7">
</path>
<path fill-rule="evenodd" clip-rule="evenodd" fill="url(#paint0_linear_111_194)" fill-opacity="0.7" d="M 195.599 0.993 C 195.604 0.659 195.606 0.328 195.606 0 L 197.606 0 C 197.606 0.338 197.604 0.678 197.599 1.021 L 195.599 0.993 Z M 195.465 5.009 C 195.498 4.329 195.526 3.659 195.549 2.997 L 197.548 3.066 C 197.525 3.739 197.496 4.418 197.463 5.103 L 195.465 5.009 Z M 195.32 7.843 C 195.334 7.569 195.349 7.297 195.363 7.026 L 197.36 7.132 C 197.346 7.405 197.331 7.678 197.317 7.952 C 197.295 8.351 197.274 8.751 197.253 9.154 L 195.255 9.049 C 195.277 8.646 195.298 8.243 195.32 7.843 Z M 195.071 13.113 C 195.095 12.43 195.123 11.752 195.154 11.078 L 197.152 11.17 C 197.121 11.838 197.093 12.509 197.07 13.182 L 195.071 13.113 Z M 195 17.2 C 194.998 16.515 195.004 15.833 195.016 15.153 L 197.016 15.19 C 197.004 15.857 196.998 16.524 197 17.193 L 195 17.2 Z M 195.126 21.305 C 195.084 20.619 195.053 19.934 195.033 19.251 L 197.032 19.191 C 197.052 19.855 197.081 20.519 197.122 21.183 L 195.126 21.305 Z M 195.531 25.412 C 195.436 24.728 195.355 24.044 195.288 23.36 L 197.279 23.165 C 197.343 23.823 197.42 24.48 197.512 25.134 L 195.531 25.412 Z M 196.299 29.485 C 196.136 28.81 195.992 28.133 195.865 27.455 L 197.831 27.087 C 197.952 27.732 198.089 28.376 198.243 29.016 L 196.299 29.485 Z M 197.501 33.469 C 197.26 32.813 197.041 32.154 196.842 31.493 L 198.757 30.916 C 198.945 31.541 199.152 32.163 199.378 32.78 L 197.501 33.469 Z M 199.181 37.287 C 198.857 36.664 198.557 36.036 198.28 35.404 L 200.111 34.599 C 200.371 35.193 200.653 35.782 200.956 36.366 L 199.181 37.287 Z M 201.342 40.86 C 200.939 40.281 200.559 39.698 200.203 39.109 L 201.914 38.073 C 202.248 38.625 202.604 39.172 202.982 39.714 L 201.342 40.86 Z M 203.947 44.124 C 203.472 43.6 203.021 43.069 202.593 42.533 L 204.156 41.285 C 204.558 41.788 204.982 42.288 205.43 42.781 L 203.947 44.124 Z M 206.914 47.036 C 206.386 46.573 205.88 46.104 205.395 45.629 L 206.795 44.2 C 207.253 44.649 207.732 45.093 208.232 45.532 L 206.914 47.036 Z M 210.169 49.605 C 209.595 49.196 209.041 48.781 208.507 48.36 L 209.745 46.789 C 210.253 47.19 210.781 47.585 211.329 47.976 L 210.169 49.605 Z M 213.636 51.848 C 213.036 51.495 212.455 51.137 211.892 50.773 L 212.977 49.093 C 213.517 49.442 214.075 49.786 214.651 50.125 L 213.636 51.848 Z M 217.277 53.811 C 216.646 53.5 216.032 53.183 215.434 52.861 L 216.383 51.1 C 216.959 51.411 217.552 51.717 218.162 52.018 L 217.277 53.811 Z M 221.015 55.511 C 220.367 55.24 219.735 54.964 219.118 54.684 L 219.946 52.863 C 220.544 53.135 221.158 53.403 221.788 53.666 L 221.015 55.511 Z M 224.832 56.989 C 224.176 56.754 223.535 56.515 222.907 56.272 L 223.628 54.407 C 224.24 54.644 224.866 54.877 225.506 55.106 L 224.832 56.989 Z M 228.714 58.277 C 228.052 58.074 227.403 57.866 226.766 57.655 L 227.396 55.757 C 228.019 55.963 228.654 56.166 229.302 56.366 L 228.714 58.277 Z M 231.683 59.141 C 231.344 59.048 231.008 58.954 230.676 58.859 L 231.225 56.936 C 231.551 57.029 231.881 57.121 232.214 57.213 C 232.531 57.3 232.849 57.387 233.169 57.473 L 232.646 59.404 C 232.324 59.317 232.003 59.229 231.683 59.141 Z M 236.555 60.43 C 235.897 60.263 235.242 60.093 234.591 59.922 L 235.099 57.988 C 235.745 58.158 236.395 58.326 237.049 58.492 L 236.555 60.43 Z M 240.462 61.4 C 239.804 61.241 239.149 61.081 238.498 60.919 L 238.98 58.978 C 239.627 59.138 240.278 59.298 240.932 59.456 L 240.462 61.4 Z M 244.379 62.324 C 243.723 62.173 243.07 62.02 242.42 61.867 L 242.879 59.92 C 243.525 60.073 244.175 60.224 244.828 60.375 L 244.379 62.324 Z M 248.309 63.209 C 247.654 63.065 247.002 62.919 246.353 62.773 L 246.792 60.822 C 247.439 60.968 248.088 61.112 248.74 61.256 L 248.309 63.209 Z M 252.248 64.062 C 251.59 63.922 250.934 63.781 250.28 63.64 L 250.703 61.685 C 251.354 61.826 252.008 61.966 252.664 62.106 L 252.248 64.062 Z M 256.193 64.887 C 255.532 64.751 254.872 64.614 254.215 64.477 L 254.624 62.519 C 255.279 62.656 255.937 62.792 256.596 62.928 L 256.193 64.887 Z M 260.131 65.686 C 259.472 65.554 258.814 65.421 258.158 65.288 L 258.556 63.328 C 259.21 63.461 259.866 63.593 260.524 63.725 L 260.131 65.686 Z M 264.077 66.467 C 263.419 66.338 262.763 66.209 262.108 66.08 L 262.496 64.118 C 263.15 64.247 263.805 64.376 264.461 64.505 L 264.077 66.467 Z M 268.028 67.234 C 267.369 67.107 266.711 66.98 266.054 66.853 L 266.435 64.889 C 267.091 65.017 267.748 65.144 268.406 65.27 L 268.028 67.234 Z M 271.98 67.99 C 271.319 67.864 270.66 67.739 270.001 67.613 L 270.376 65.648 C 271.034 65.774 271.693 65.9 272.353 66.025 L 271.98 67.99 Z M 274.63 68.492 C 274.404 68.449 274.178 68.407 273.952 68.364 L 274.324 66.399 C 274.981 66.523 275.639 66.647 276.298 66.772 L 275.927 68.737 C 275.494 68.655 275.062 68.574 274.63 68.492 Z M 279.878 69.481 L 277.905 69.11 L 278.274 67.144 L 280.247 67.515 L 279.878 69.481 Z M 283.828 70.224 L 281.853 69.852 L 282.222 67.886 L 284.198 68.258 L 283.828 70.224 Z M 287.776 70.969 C 287.118 70.844 286.46 70.72 285.802 70.596 L 286.173 68.63 C 286.831 68.755 287.49 68.879 288.148 69.004 L 287.776 70.969 Z M 291.722 71.72 C 291.065 71.594 290.407 71.469 289.75 71.344 L 290.124 69.379 C 290.782 69.504 291.44 69.63 292.099 69.756 L 291.722 71.72 Z M 295.666 72.481 C 295.009 72.353 294.351 72.226 293.693 72.099 L 294.072 70.135 C 294.731 70.262 295.39 70.39 296.048 70.518 L 295.666 72.481 Z M 299.605 73.253 C 298.949 73.124 298.293 72.994 297.637 72.865 L 298.022 70.903 C 298.679 71.032 299.337 71.161 299.994 71.292 L 299.605 73.253 Z M 303.542 74.043 C 302.888 73.91 302.232 73.778 301.576 73.646 L 301.969 71.685 C 302.627 71.817 303.284 71.949 303.94 72.083 L 303.542 74.043 Z M 307.475 74.852 C 306.821 74.715 306.165 74.579 305.508 74.444 L 305.911 72.485 C 306.57 72.621 307.227 72.757 307.884 72.894 L 307.475 74.852 Z M 311.4 75.684 C 310.746 75.543 310.091 75.403 309.435 75.264 L 309.849 73.307 C 310.508 73.447 311.165 73.587 311.821 73.729 L 311.4 75.684 Z M 315.313 76.542 C 314.664 76.397 314.013 76.253 313.36 76.11 L 313.789 74.156 C 314.444 74.3 315.097 74.445 315.749 74.59 L 315.313 76.542 Z M 319.227 77.434 C 318.578 77.284 317.928 77.134 317.276 76.985 L 317.72 75.035 C 318.375 75.184 319.029 75.335 319.68 75.487 L 319.227 77.434 Z M 323.13 78.363 C 322.482 78.205 321.831 78.049 321.177 77.893 L 321.64 75.948 C 322.297 76.104 322.951 76.261 323.603 76.42 L 323.13 78.363 Z M 327.018 79.333 C 326.371 79.167 325.721 79.003 325.068 78.841 L 325.552 76.9 C 326.208 77.064 326.862 77.229 327.513 77.395 L 327.018 79.333 Z M 330.887 80.349 C 330.246 80.176 329.603 80.005 328.956 79.835 L 329.464 77.9 C 330.114 78.071 330.762 78.244 331.408 78.418 L 330.887 80.349 Z M 334.744 81.419 C 334.108 81.237 333.468 81.057 332.825 80.879 L 333.36 78.952 C 334.008 79.131 334.652 79.313 335.294 79.496 L 334.744 81.419 Z M 338.589 82.552 C 337.954 82.359 337.315 82.168 336.673 81.979 L 337.238 80.06 C 337.886 80.251 338.53 80.444 339.171 80.639 L 338.589 82.552 Z M 342.407 83.754 C 341.774 83.547 341.136 83.344 340.494 83.142 L 341.094 81.234 C 341.742 81.438 342.386 81.644 343.026 81.852 L 342.407 83.754 Z M 346.193 85.032 C 345.565 84.811 344.931 84.594 344.292 84.378 L 344.932 82.483 C 345.577 82.701 346.218 82.921 346.854 83.144 L 346.193 85.032 Z M 349.943 86.397 C 349.324 86.162 348.699 85.93 348.07 85.701 L 348.753 83.822 C 349.391 84.054 350.024 84.289 350.651 84.526 L 349.943 86.397 Z M 353.648 87.861 C 353.04 87.61 352.426 87.362 351.806 87.117 L 352.541 85.257 C 353.17 85.506 353.793 85.757 354.411 86.012 L 353.648 87.861 Z M 357.301 89.438 C 356.706 89.169 356.103 88.903 355.494 88.639 L 356.286 86.803 C 356.906 87.071 357.519 87.342 358.125 87.616 L 357.301 89.438 Z M 360.896 91.148 C 360.313 90.856 359.721 90.567 359.122 90.282 L 359.98 88.476 C 360.592 88.767 361.195 89.061 361.791 89.359 L 360.896 91.148 Z M 364.41 93.005 C 363.841 92.687 363.263 92.373 362.677 92.063 L 363.611 90.295 C 364.211 90.612 364.803 90.933 365.386 91.259 L 364.41 93.005 Z M 367.819 95.03 C 367.269 94.682 366.709 94.339 366.14 94.001 L 367.16 92.281 C 367.746 92.629 368.322 92.981 368.888 93.339 L 367.819 95.03 Z M 371.094 97.243 C 370.569 96.863 370.033 96.488 369.486 96.118 L 370.605 94.461 C 371.17 94.842 371.724 95.23 372.267 95.623 L 371.094 97.243 Z M 374.2 99.67 C 373.707 99.253 373.201 98.842 372.681 98.437 L 373.913 96.86 C 374.451 97.281 374.978 97.709 375.491 98.143 L 374.2 99.67 Z M 377.091 102.337 C 376.637 101.878 376.168 101.425 375.684 100.979 L 377.039 99.509 C 377.545 99.975 378.036 100.449 378.513 100.93 L 377.091 102.337 Z M 379.075 104.496 C 378.867 104.251 378.654 104.008 378.438 103.766 L 379.928 102.432 C 380.156 102.686 380.379 102.942 380.599 103.201 C 380.82 103.461 381.037 103.72 381.251 103.98 L 379.706 105.251 C 379.5 104.999 379.289 104.748 379.075 104.496 Z M 382.071 108.323 C 381.699 107.805 381.314 107.286 380.913 106.766 L 382.498 105.546 C 382.912 106.084 383.311 106.621 383.696 107.157 L 382.071 108.323 Z M 384.221 111.558 C 383.888 111.015 383.54 110.47 383.177 109.923 L 384.842 108.816 C 385.219 109.383 385.58 109.949 385.926 110.513 L 384.221 111.558 Z M 386.116 114.933 C 385.826 114.367 385.522 113.799 385.202 113.228 L 386.945 112.249 C 387.278 112.842 387.595 113.433 387.897 114.023 L 386.116 114.933 Z M 387.733 118.443 C 387.491 117.855 387.234 117.265 386.96 116.672 L 388.777 115.834 C 389.062 116.453 389.33 117.068 389.583 117.681 L 387.733 118.443 Z M 389.054 122.075 C 388.862 121.468 388.655 120.858 388.432 120.245 L 390.311 119.561 C 390.544 120.201 390.76 120.838 390.961 121.471 L 389.054 122.075 Z M 390.064 125.807 C 389.924 125.186 389.769 124.56 389.599 123.93 L 391.529 123.407 C 391.707 124.065 391.869 124.718 392.015 125.366 L 390.064 125.807 Z M 390.761 129.614 C 390.672 128.983 390.569 128.345 390.452 127.703 L 392.419 127.343 C 392.542 128.013 392.648 128.677 392.741 129.335 L 390.761 129.614 Z M 391.153 133.47 C 391.113 132.833 391.06 132.188 390.994 131.538 L 392.984 131.336 C 393.052 132.012 393.107 132.682 393.149 133.343 L 391.153 133.47 Z M 391.263 137.35 C 391.266 136.711 391.26 136.063 391.241 135.408 L 393.241 135.352 C 393.26 136.031 393.266 136.7 393.263 137.36 L 391.263 137.35 Z M 391.126 141.241 C 391.167 140.601 391.199 139.951 391.223 139.292 L 393.222 139.363 C 393.197 140.042 393.164 140.71 393.122 141.366 L 391.126 141.241 Z M 390.793 145.134 C 390.86 144.499 390.923 143.851 390.98 143.189 L 392.973 143.361 C 392.914 144.037 392.85 144.698 392.782 145.344 L 390.793 145.134 Z M 390.336 149.043 C 390.414 148.408 390.494 147.757 390.574 147.088 L 392.56 147.322 C 392.48 147.998 392.399 148.654 392.32 149.288 L 390.336 149.043 Z M 389.882 152.994 C 389.942 152.359 390.015 151.697 390.096 151.012 L 392.082 151.246 C 392.003 151.923 391.931 152.568 391.873 153.183 L 389.882 152.994 Z M 389.711 156.045 C 389.711 155.711 389.72 155.367 389.735 155.015 L 391.733 155.102 C 391.719 155.43 391.711 155.744 391.711 156.045 L 389.711 156.045 Z">
</path>
<path fill-rule="evenodd" clip-rule="evenodd" d="M 0.599 155.052 C 0.604 155.386 0.606 155.717 0.606 156.045 L 2.606 156.045 C 2.606 155.707 2.604 155.367 2.599 155.024 L 0.599 155.052 Z M 0.465 151.036 C 0.498 151.716 0.526 152.386 0.549 153.048 L 2.548 152.979 C 2.525 152.306 2.496 151.627 2.463 150.942 L 0.465 151.036 Z M 0.32 148.202 C 0.334 148.476 0.349 148.748 0.363 149.019 L 2.36 148.913 C 2.346 148.64 2.331 148.367 2.317 148.093 C 2.295 147.694 2.274 147.294 2.253 146.891 L 0.255 146.996 C 0.277 147.399 0.298 147.802 0.32 148.202 Z M 0.071 142.932 C 0.095 143.615 0.123 144.293 0.154 144.967 L 2.152 144.875 C 2.121 144.207 2.093 143.536 2.07 142.863 L 0.071 142.932 Z M 0 138.845 C -0.002 139.53 0.004 140.212 0.016 140.892 L 2.016 140.855 C 2.004 140.188 1.998 139.521 2 138.852 L 0 138.845 Z M 0.126 134.74 C 0.084 135.426 0.053 136.111 0.033 136.794 L 2.032 136.854 C 2.052 136.19 2.081 135.526 2.122 134.862 L 0.126 134.74 Z M 0.531 130.633 C 0.436 131.317 0.355 132.001 0.288 132.685 L 2.279 132.88 C 2.343 132.222 2.42 131.565 2.512 130.911 L 0.531 130.633 Z M 1.299 126.56 C 1.136 127.235 0.992 127.912 0.865 128.59 L 2.831 128.958 C 2.952 128.313 3.089 127.669 3.243 127.029 L 1.299 126.56 Z M 2.501 122.576 C 2.26 123.232 2.041 123.891 1.842 124.552 L 3.757 125.129 C 3.945 124.504 4.152 123.882 4.378 123.265 L 2.501 122.576 Z M 4.181 118.758 C 3.857 119.381 3.557 120.009 3.28 120.641 L 5.111 121.446 C 5.371 120.852 5.653 120.263 5.956 119.679 L 4.181 118.758 Z M 6.342 115.185 C 5.939 115.764 5.559 116.347 5.203 116.936 L 6.914 117.972 C 7.248 117.42 7.604 116.873 7.982 116.331 L 6.342 115.185 Z M 8.947 111.921 C 8.472 112.445 8.021 112.976 7.593 113.512 L 9.156 114.76 C 9.558 114.257 9.982 113.757 10.43 113.264 L 8.947 111.921 Z M 11.914 109.009 C 11.386 109.472 10.88 109.941 10.395 110.416 L 11.795 111.845 C 12.253 111.396 12.732 110.952 13.232 110.513 L 11.914 109.009 Z M 15.169 106.44 C 14.595 106.849 14.041 107.264 13.507 107.685 L 14.745 109.256 C 15.253 108.855 15.781 108.46 16.329 108.069 L 15.169 106.44 Z M 18.636 104.197 C 18.036 104.55 17.455 104.908 16.892 105.272 L 17.977 106.952 C 18.517 106.603 19.075 106.259 19.651 105.92 L 18.636 104.197 Z M 22.277 102.234 C 21.646 102.545 21.032 102.862 20.434 103.184 L 21.383 104.945 C 21.959 104.634 22.552 104.328 23.162 104.027 L 22.277 102.234 Z M 26.015 100.534 C 25.367 100.805 24.735 101.081 24.118 101.361 L 24.946 103.182 C 25.544 102.91 26.158 102.642 26.788 102.379 L 26.015 100.534 Z M 29.832 99.056 C 29.176 99.291 28.535 99.53 27.907 99.773 L 28.628 101.638 C 29.24 101.401 29.866 101.168 30.506 100.939 L 29.832 99.056 Z M 33.714 97.768 C 33.052 97.971 32.403 98.179 31.766 98.39 L 32.396 100.288 C 33.019 100.082 33.654 99.879 34.302 99.679 L 33.714 97.768 Z M 36.683 96.904 C 36.344 96.997 36.008 97.091 35.676 97.186 L 36.225 99.109 C 36.551 99.016 36.881 98.924 37.214 98.832 C 37.531 98.745 37.849 98.658 38.169 98.572 L 37.646 96.641 C 37.324 96.728 37.003 96.816 36.683 96.904 Z M 41.555 95.615 C 40.897 95.782 40.242 95.952 39.591 96.123 L 40.099 98.057 C 40.745 97.887 41.395 97.719 42.049 97.553 L 41.555 95.615 Z M 45.462 94.645 C 44.804 94.804 44.149 94.964 43.498 95.126 L 43.98 97.067 C 44.627 96.907 45.278 96.747 45.932 96.589 L 45.462 94.645 Z M 49.379 93.721 C 48.723 93.872 48.07 94.025 47.42 94.178 L 47.879 96.125 C 48.525 95.972 49.175 95.821 49.828 95.67 L 49.379 93.721 Z M 53.309 92.836 C 52.654 92.98 52.002 93.126 51.353 93.272 L 51.792 95.223 C 52.439 95.077 53.088 94.933 53.74 94.789 L 53.309 92.836 Z M 57.248 91.983 C 56.59 92.123 55.934 92.264 55.28 92.405 L 55.703 94.36 C 56.354 94.219 57.008 94.079 57.664 93.939 L 57.248 91.983 Z M 61.193 91.158 C 60.532 91.294 59.872 91.431 59.215 91.568 L 59.624 93.526 C 60.279 93.389 60.937 93.253 61.596 93.117 L 61.193 91.158 Z M 65.131 90.359 C 64.472 90.491 63.814 90.624 63.158 90.757 L 63.556 92.717 C 64.21 92.584 64.866 92.452 65.524 92.32 L 65.131 90.359 Z M 69.077 89.578 C 68.419 89.707 67.763 89.836 67.108 89.965 L 67.496 91.927 C 68.15 91.798 68.805 91.669 69.461 91.54 L 69.077 89.578 Z M 73.028 88.811 C 72.369 88.938 71.711 89.065 71.054 89.192 L 71.435 91.156 C 72.091 91.028 72.748 90.901 73.406 90.775 L 73.028 88.811 Z M 76.98 88.055 C 76.319 88.181 75.66 88.306 75.001 88.432 L 75.376 90.397 C 76.034 90.271 76.693 90.145 77.353 90.02 L 76.98 88.055 Z M 79.63 87.553 C 79.404 87.596 79.178 87.638 78.952 87.681 L 79.324 89.646 C 79.981 89.522 80.639 89.398 81.298 89.273 L 80.927 87.308 C 80.494 87.39 80.062 87.471 79.63 87.553 Z M 84.878 86.564 L 82.905 86.935 L 83.274 88.901 L 85.247 88.53 L 84.878 86.564 Z M 88.828 85.821 L 86.853 86.193 L 87.222 88.159 L 89.198 87.787 L 88.828 85.821 Z M 92.776 85.076 C 92.118 85.201 91.46 85.325 90.802 85.449 L 91.173 87.415 C 91.831 87.29 92.49 87.166 93.148 87.041 L 92.776 85.076 Z M 96.722 84.325 C 96.065 84.451 95.407 84.576 94.75 84.701 L 95.124 86.666 C 95.782 86.541 96.44 86.415 97.099 86.289 L 96.722 84.325 Z M 100.666 83.564 C 100.009 83.692 99.351 83.819 98.693 83.946 L 99.072 85.91 C 99.731 85.783 100.39 85.655 101.048 85.527 L 100.666 83.564 Z M 104.605 82.792 C 103.949 82.921 103.293 83.051 102.637 83.18 L 103.022 85.142 C 103.679 85.013 104.337 84.884 104.994 84.753 L 104.605 82.792 Z M 108.542 82.002 C 107.888 82.135 107.232 82.267 106.576 82.399 L 106.969 84.36 C 107.627 84.228 108.284 84.096 108.94 83.962 L 108.542 82.002 Z M 112.475 81.193 C 111.821 81.33 111.165 81.466 110.508 81.601 L 110.911 83.56 C 111.57 83.424 112.227 83.288 112.884 83.151 L 112.475 81.193 Z M 116.4 80.361 C 115.746 80.502 115.091 80.642 114.435 80.781 L 114.849 82.738 C 115.508 82.598 116.165 82.458 116.821 82.316 L 116.4 80.361 Z M 120.313 79.503 C 119.664 79.648 119.013 79.792 118.36 79.935 L 118.789 81.889 C 119.444 81.745 120.097 81.6 120.749 81.455 L 120.313 79.503 Z M 124.227 78.611 C 123.578 78.761 122.928 78.911 122.276 79.06 L 122.72 81.01 C 123.375 80.861 124.029 80.71 124.68 80.558 L 124.227 78.611 Z M 128.13 77.682 C 127.482 77.84 126.831 77.996 126.177 78.152 L 126.64 80.097 C 127.297 79.941 127.951 79.784 128.603 79.625 L 128.13 77.682 Z M 132.018 76.712 C 131.371 76.878 130.721 77.042 130.068 77.204 L 130.552 79.145 C 131.208 78.981 131.862 78.816 132.513 78.65 L 132.018 76.712 Z M 135.887 75.696 C 135.246 75.869 134.603 76.04 133.956 76.21 L 134.464 78.145 C 135.114 77.974 135.762 77.801 136.408 77.627 L 135.887 75.696 Z M 139.744 74.626 C 139.108 74.808 138.468 74.988 137.825 75.166 L 138.36 77.093 C 139.008 76.914 139.652 76.732 140.294 76.549 L 139.744 74.626 Z M 143.589 73.493 C 142.954 73.686 142.315 73.877 141.673 74.066 L 142.238 75.985 C 142.886 75.794 143.53 75.601 144.171 75.406 L 143.589 73.493 Z M 147.407 72.291 C 146.774 72.498 146.136 72.701 145.494 72.903 L 146.094 74.811 C 146.742 74.607 147.386 74.401 148.026 74.193 L 147.407 72.291 Z M 151.193 71.013 C 150.565 71.234 149.931 71.451 149.292 71.667 L 149.932 73.562 C 150.577 73.344 151.218 73.124 151.854 72.901 L 151.193 71.013 Z M 154.943 69.648 C 154.324 69.883 153.699 70.115 153.07 70.344 L 153.753 72.223 C 154.391 71.991 155.024 71.756 155.651 71.519 L 154.943 69.648 Z M 158.648 68.184 C 158.04 68.435 157.426 68.683 156.806 68.928 L 157.541 70.788 C 158.17 70.539 158.793 70.288 159.411 70.033 L 158.648 68.184 Z M 162.301 66.607 C 161.706 66.876 161.103 67.142 160.494 67.406 L 161.286 69.242 C 161.906 68.974 162.519 68.703 163.125 68.429 L 162.301 66.607 Z M 165.896 64.897 C 165.313 65.189 164.721 65.478 164.122 65.763 L 164.98 67.569 C 165.592 67.278 166.195 66.984 166.791 66.686 L 165.896 64.897 Z M 169.41 63.04 C 168.841 63.358 168.263 63.672 167.677 63.982 L 168.611 65.75 C 169.211 65.433 169.803 65.112 170.386 64.786 L 169.41 63.04 Z M 172.819 61.015 C 172.269 61.363 171.709 61.706 171.14 62.044 L 172.16 63.764 C 172.746 63.416 173.322 63.064 173.888 62.706 L 172.819 61.015 Z M 176.094 58.802 C 175.569 59.182 175.033 59.557 174.486 59.927 L 175.605 61.584 C 176.17 61.203 176.724 60.815 177.267 60.422 L 176.094 58.802 Z M 179.2 56.375 C 178.707 56.792 178.201 57.203 177.681 57.608 L 178.913 59.185 C 179.451 58.764 179.978 58.336 180.491 57.902 L 179.2 56.375 Z M 182.091 53.708 C 181.637 54.167 181.168 54.62 180.684 55.066 L 182.039 56.536 C 182.545 56.07 183.036 55.596 183.513 55.115 L 182.091 53.708 Z M 184.075 51.549 C 183.867 51.794 183.654 52.037 183.438 52.279 L 184.928 53.613 C 185.156 53.359 185.379 53.103 185.599 52.844 C 185.82 52.584 186.037 52.325 186.251 52.065 L 184.706 50.794 C 184.5 51.046 184.289 51.297 184.075 51.549 Z M 187.071 47.722 C 186.699 48.24 186.314 48.759 185.913 49.279 L 187.498 50.499 C 187.912 49.961 188.311 49.424 188.696 48.888 L 187.071 47.722 Z M 189.221 44.487 C 188.888 45.03 188.54 45.575 188.177 46.122 L 189.842 47.229 C 190.219 46.662 190.58 46.096 190.926 45.532 L 189.221 44.487 Z M 191.116 41.112 C 190.826 41.678 190.522 42.246 190.202 42.817 L 191.945 43.796 C 192.278 43.203 192.595 42.612 192.897 42.022 L 191.116 41.112 Z M 192.733 37.602 C 192.491 38.19 192.234 38.78 191.96 39.373 L 193.777 40.211 C 194.062 39.592 194.33 38.977 194.583 38.364 L 192.733 37.602 Z M 194.054 33.97 C 193.862 34.577 193.655 35.187 193.432 35.8 L 195.311 36.484 C 195.544 35.844 195.76 35.207 195.961 34.574 L 194.054 33.97 Z M 195.064 30.238 C 194.924 30.859 194.769 31.485 194.599 32.115 L 196.529 32.638 C 196.707 31.98 196.869 31.327 197.015 30.679 L 195.064 30.238 Z M 195.761 26.431 C 195.672 27.062 195.569 27.7 195.452 28.342 L 197.419 28.702 C 197.542 28.032 197.648 27.368 197.741 26.71 L 195.761 26.431 Z M 196.153 22.575 C 196.113 23.212 196.06 23.857 195.994 24.507 L 197.984 24.709 C 198.052 24.033 198.107 23.363 198.149 22.702 L 196.153 22.575 Z M 196.263 18.695 C 196.266 19.334 196.26 19.982 196.241 20.637 L 198.241 20.693 C 198.26 20.014 198.266 19.345 198.263 18.685 L 196.263 18.695 Z M 196.126 14.804 C 196.167 15.444 196.199 16.094 196.223 16.753 L 198.222 16.682 C 198.197 16.003 198.164 15.335 198.122 14.679 L 196.126 14.804 Z M 195.793 10.911 C 195.86 11.546 195.923 12.194 195.98 12.856 L 197.973 12.684 C 197.914 12.008 197.85 11.347 197.782 10.701 L 195.793 10.911 Z M 195.336 7.002 C 195.414 7.637 195.494 8.288 195.574 8.957 L 197.56 8.723 C 197.48 8.047 197.399 7.391 197.32 6.757 L 195.336 7.002 Z M 194.882 3.051 C 194.942 3.686 195.015 4.348 195.096 5.033 L 197.082 4.799 C 197.003 4.122 196.931 3.477 196.873 2.862 L 194.882 3.051 Z M 194.711 0 C 194.711 0.334 194.72 0.678 194.735 1.03 L 196.733 0.943 C 196.719 0.615 196.711 0.301 196.711 0 L 194.711 0 Z" fill="url(#gradient-1)" fill-opacity="0.7" transform="matrix(-1, 0, 0, -1, 198.263356, 156.044998)">
</path>
</svg>
